<svg width="59" height="58" viewBox="0 0 59 58" fill="none" xmlns="http://www.w3.org/2000/svg">
<path d="M34.8206 35.9457C34.7466 34.6649 34.1967 33.4594 33.2689 32.5501C32.2645 31.5577 30.9296 31.0121 29.5048 31.0121C26.9805 31.0121 24.612 30.0457 22.8384 28.292C21.7334 27.2061 20.9272 25.8733 20.4805 24.4211C12.7858 25.5901 9.42346 27.9543 9.42346 28.9987C9.42346 30.1262 13.3329 32.7892 22.3652 33.8284C23.3987 33.9479 24.1759 34.8078 24.1759 35.8288V36.2471C24.1759 39.1334 26.5655 41.482 29.5022 41.482C30.9269 41.482 32.2618 40.9364 33.261 39.9492C34.276 38.9594 34.8285 37.6474 34.8285 36.2445L34.8232 36.047C34.8259 36.0159 34.8232 35.9821 34.8206 35.9457Z" fill="url(#paint0_linear_5459_539)"/>
<path d="M36.6445 24.169C35.6109 24.0495 34.8338 23.1896 34.8338 22.1686V21.7503C34.8338 20.35 34.2787 19.038 33.2742 18.056C32.2671 17.0584 30.9322 16.5154 29.5048 16.5154C28.0801 16.5154 26.7452 17.061 25.746 18.0482C24.731 19.038 24.1785 20.35 24.1785 21.7529L24.1838 22.0803C24.271 23.3533 24.8235 24.5483 25.7407 25.4498C26.7452 26.4423 28.0801 26.9879 29.5048 26.9879C32.0292 26.9879 34.3976 27.9543 36.1713 29.7079C37.2789 30.7965 38.0824 32.1293 38.5265 33.5789C46.2239 32.4098 49.5836 30.0457 49.5836 29.0013C49.5862 27.8712 45.6767 25.2108 36.6445 24.169Z" fill="url(#paint1_linear_5459_539)"/>
<path d="M29.5048 0C13.2114 0 0 12.9847 0 28.9987C0 45.0127 13.2114 57.9974 29.5048 57.9974C45.7983 57.9974 59.0097 45.0127 59.0097 28.9987C59.0097 12.9847 45.801 0 29.5048 0ZM44.2573 12.4859C45.3886 12.4859 46.3058 13.3874 46.3058 14.4994C46.3058 15.6113 45.3886 16.5128 44.2573 16.5128C43.1259 16.5128 42.2087 15.6113 42.2087 14.4994C42.2087 13.3874 43.1259 12.4859 44.2573 12.4859ZM14.7524 45.5141C13.6211 45.5141 12.7038 44.6126 12.7038 43.5007C12.7038 42.3887 13.6211 41.4872 14.7524 41.4872C15.8838 41.4872 16.801 42.3887 16.801 43.5007C16.801 44.6126 15.8838 45.5141 14.7524 45.5141ZM38.8305 37.6084C38.5397 39.5725 37.6172 41.3807 36.1607 42.8018C34.395 44.5476 32.0292 45.5141 29.5048 45.5141C24.7786 45.5141 20.8506 42.077 20.1818 37.611C10.8429 36.2627 5.32895 33.0931 5.32895 29.0013C5.32895 24.9121 10.8429 21.7425 20.1818 20.3916C20.4726 18.4275 21.3951 16.6193 22.8516 15.1982C24.6173 13.4524 26.9831 12.4859 29.5075 12.4859C32.0319 12.4859 34.4003 13.4524 36.174 15.206C37.6199 16.6193 38.5424 18.4249 38.8331 20.389C48.172 21.7373 53.686 24.9069 53.686 28.9987C53.6834 33.0879 48.1694 36.2575 38.8305 37.6084Z" fill="url(#paint2_linear_5459_539)"/>
<defs>
<linearGradient id="paint0_linear_5459_539" x1="0.34389" y1="54.9348" x2="55.9548" y2="-1.64674" gradientUnits="userSpaceOnUse">
<stop offset="0.1" stop-color="#DE1CFF"/>
<stop offset="1" stop-color="#32D2FF"/>
</linearGradient>
<linearGradient id="paint1_linear_5459_539" x1="3.11772" y1="57.6611" x2="58.7287" y2="1.0795" gradientUnits="userSpaceOnUse">
<stop offset="0.1" stop-color="#DE1CFF"/>
<stop offset="1" stop-color="#32D2FF"/>
</linearGradient>
<linearGradient id="paint2_linear_5459_539" x1="1.7308" y1="56.298" x2="57.3418" y2="-0.283628" gradientUnits="userSpaceOnUse">
<stop offset="0.1" stop-color="#DE1CFF"/>
<stop offset="1" stop-color="#32D2FF"/>
</linearGradient>
</defs>
</svg>
